<svg xmlns="http://www.w3.org/2000/svg" viewBox="0 0 3665 790">
    <g id="Page-1" stroke="none" stroke-width="1" fill="none" fill-rule="evenodd">
        <g id="Document" transform="translate(-241, -1640)" fill="#1E1E1E">
            <g id="Group" transform="translate(240.7625, 1640.7785)">
                <path d="M2239.81435,235.477949 C2219.67684,235.477949 2203.60184,230.311282 2191.57684,220.002947 C2179.53934,209.694613 2173.52684,195.698779 2173.52684,178.027944 C2173.52684,160.348776 2179.53934,146.352941 2191.57684,136.044607 C2203.60184,125.736273 2219.67684,120.582106 2239.81435,120.582106 C2259.94351,120.582106 2276.01435,125.736273 2288.05185,136.044607 C2300.08102,146.352941 2306.09352,160.348776 2306.09352,178.027944 C2306.09352,195.698779 2300.08102,209.694613 2288.05185,220.002947 C2276.01435,230.311282 2259.94351,235.477949 2239.81435,235.477949 M2055.6935,704.611319 L2055.6935,605.186312 L2189.72684,605.186312 L2189.72684,398.969628 L2070.42683,398.969628 L2070.42683,299.548787 L2300.21018,299.548787 L2300.21018,605.186312 L2416.57269,605.186312 L2416.57269,704.611319 L2055.6935,704.611319 Z" id="Shape" fill-rule="nonzero"></path>
                <path d="M3550.8482,96.4021041 L3664.97321,96.4021041 L3536.18153,447.318799 L3520.26486,490.693802 L3441.76486,704.610486 L3441.18153,706.152153 L3439.26486,711.360487 L3410.88986,788.693826 L3296.76485,788.693826 L3326.51485,707.652153 L3354.72318,630.777147 L3386.68152,543.693807 L3389.38944,536.318806 L3389.38944,487.610469 C3389.38944,465.777134 3384.22277,449.193799 3373.84777,437.735465 C3363.47277,426.277131 3348.97277,420.568787 3330.34777,420.568787 C3311.1811,420.568787 3296.4311,426.568797 3286.0561,438.527132 C3275.6811,450.485466 3270.51443,467.902134 3270.51443,490.777136 L3270.51443,704.610486 L3139.63942,704.610486 L3139.63942,487.610469 C3139.63942,465.777134 3134.84775,449.193799 3125.30608,437.735465 C3115.72275,426.277131 3101.59775,420.568787 3082.97275,420.568787 C3063.84775,420.568787 3049.47274,426.443797 3039.88941,438.110465 C3030.34774,449.818799 3025.55608,466.5688 3025.55608,488.402136 L3025.55608,704.610486 L2894.68106,704.610486 L2894.68106,305.652121 L3012.76441,305.652121 L3022.34774,347.943791 C3034.59774,334.110456 3049.22274,322.693789 3066.22275,313.652122 C3083.26441,304.610454 3102.13941,300.068787 3122.88942,300.068787 C3146.30608,300.068787 3168.38942,305.402121 3189.13942,316.027122 C3209.84776,326.693789 3226.88942,341.860457 3240.18109,361.527125 C3255.05609,343.985457 3273.1811,329.360456 3294.4311,317.652122 C3315.72277,305.943788 3339.38943,300.068787 3365.47277,300.068787 C3396.84777,300.068787 3424.09777,306.860454 3447.26444,320.443789 C3453.30611,323.985456 3458.97278,327.943789 3464.30611,332.277123 L3476.38986,299.318787 L3476.51486,298.943787 L3550.8482,96.4021041 Z" id="Combined-Shape"></path>
                <path d="M2815.68773,704.629236 L2696.80438,704.629236 L2687.22521,658.354232 C2674.46271,673.7834 2659.30438,686.275068 2641.75021,695.854235 C2624.19604,705.429236 2604.76687,710.21257 2583.50021,710.21257 C2554.2377,710.21257 2528.8377,703.429236 2507.3002,689.866735 C2485.75437,676.308401 2469.0002,656.633399 2457.02936,630.820897 C2445.05853,605.029228 2439.0752,574.045892 2439.0752,537.866723 L2439.0752,305.666704 L2569.92937,305.666704 L2569.92937,522.704222 C2569.92937,545.58339 2574.72521,562.995891 2584.29187,574.966726 C2593.87104,586.933393 2608.22938,592.920894 2627.38771,592.920894 C2646.00021,592.920894 2660.22105,586.67506 2670.07105,574.162559 C2679.90855,561.675058 2684.83355,543.979223 2684.83355,521.112555 L2684.83355,305.666704 L2815.68773,305.666704 L2815.68773,704.629236 Z" id="Path"></path>
                <path d="M1362.33344,617.462146 C1378.99178,617.462146 1394.72511,613.303812 1409.51261,604.970478 C1424.30428,596.632977 1436.53345,583.999643 1446.21262,567.053808 C1455.89595,550.120474 1460.72928,528.482972 1460.72928,502.13297 C1460.72928,476.874635 1456.15845,455.762133 1447.02512,438.828798 C1437.86678,421.882964 1425.91261,409.262129 1411.13345,400.912129 C1396.33344,392.587128 1380.35011,388.420461 1363.14178,388.420461 C1346.47094,388.420461 1331.01677,392.587128 1316.77094,400.912129 C1302.52094,409.262129 1291.0876,421.882964 1282.4876,438.828798 C1273.89177,455.762133 1269.59177,477.412135 1269.59177,503.749637 C1269.59177,529.032972 1273.7501,550.120474 1282.08344,567.053808 C1290.42094,583.999643 1301.56677,596.632977 1315.55844,604.970478 C1329.53761,613.303812 1345.12511,617.462146 1362.33344,617.462146 M1362.33344,710.212153 C1323.08344,710.212153 1288.13344,701.745486 1257.49593,684.812151 C1226.84176,667.870483 1202.77926,643.957981 1185.30843,613.032979 C1167.82509,582.11631 1159.09593,545.691307 1159.09593,503.749637 C1159.09593,461.274633 1167.97093,424.445464 1185.71259,393.257961 C1203.45426,362.078792 1228.05843,338.01629 1259.50843,321.070455 C1290.95844,304.137121 1326.05011,295.670453 1364.76261,295.670453 C1403.47511,295.670453 1438.55845,304.137121 1470.00428,321.070455 C1501.45429,338.01629 1526.32096,361.937125 1544.60846,392.853795 C1562.87929,423.77463 1572.03346,460.1913 1572.03346,502.13297 C1572.03346,544.620473 1562.75846,581.449643 1544.20429,612.628812 C1525.65429,643.812148 1500.51679,667.870483 1468.79178,684.812151 C1437.06678,701.745486 1401.58345,710.212153 1362.33344,710.212153" id="Shape" fill-rule="nonzero"></path>
                <path d="M1712.83889,502.94172 C1712.83889,536.283389 1721.56805,563.433392 1739.04722,584.404227 C1756.51806,605.362562 1779.23889,615.854229 1807.19723,615.854229 C1824.39306,615.854229 1840.1264,611.412562 1854.38056,602.541728 C1868.62223,593.670894 1880.18473,580.904226 1889.05557,564.233392 C1897.9264,547.57089 1902.36807,527.137555 1902.36807,502.94172 C1902.36807,478.745885 1897.9264,458.320883 1889.05557,441.650048 C1880.18473,424.991714 1868.62223,412.212546 1854.38056,403.341712 C1840.1264,394.470878 1824.39306,390.029211 1807.19723,390.029211 C1779.23889,390.029211 1756.51806,400.520878 1739.04722,421.479213 C1721.56805,442.450048 1712.83889,469.612551 1712.83889,502.94172 M1915.2639,361.808375 L1902.36807,364.225042 L1902.36807,123.883356 L2005.60141,123.883356 L2005.60141,704.570903 L1912.0389,704.570903 L1905.59307,654.566732 C1893.2139,670.166733 1876.2764,683.337568 1854.78473,694.091735 C1833.26806,704.833403 1808.80556,710.21257 1781.39306,710.21257 C1745.90556,710.21257 1714.70972,701.616736 1687.83055,684.408401 C1660.94305,667.200066 1639.97221,643.004231 1624.92221,611.816729 C1609.87221,580.641726 1602.34304,544.34589 1602.34304,502.94172 C1602.34304,461.00005 1609.87221,424.441714 1624.92221,393.258378 C1639.97221,362.079209 1660.94305,338.01254 1687.83055,321.070872 C1714.70972,304.137537 1745.90556,295.67087 1781.39306,295.67087 C1812.03473,295.67087 1838.90973,302.125037 1862.03473,315.020872 C1885.1514,327.929206 1902.89307,343.529207 1915.2639,361.808375" id="Shape" fill-rule="nonzero"></path>
                <path d="M912.073823,146.520858 C968.365494,146.520858 1018.44883,159.854193 1062.32383,186.562528 C1106.19884,213.229197 1137.61551,249.2292 1156.65718,294.562537 L1043.69883,331.854206 C1033.44883,309.187538 1016.9905,291.104203 994.323829,277.562535 C971.657161,264.062534 945.698826,257.270867 916.448823,257.270867 C887.948821,257.270867 862.740486,264.437534 840.782151,278.687535 C818.865482,292.937537 802.407147,312.854205 791.448813,338.43754 C780.490479,364.020876 774.990479,394.354211 774.990479,429.479214 C774.990479,482.104218 787.782146,523.604222 813.365482,553.937557 C838.948817,584.270893 874.07382,599.437561 918.657157,599.437561 C947.198826,599.437561 972.948828,593.062561 995.94883,580.270893 C1018.9905,567.479225 1036.3655,549.729224 1048.07383,527.062555 L1158.82384,564.354225 C1137.61551,608.229228 1104.69884,643.520898 1060.1155,670.187567 C1015.53216,696.895902 965.073827,710.229237 908.782156,710.229237 C908.065887,710.229237 907.349618,710.226672 906.633799,710.221769 L848.237418,710.221549 L537.32421,710.229237 L537.32,710.213 L33.7991693,710.21382 C31.4635157,661.6141 30.2803819,637.038105 27.9668957,588.980353 L27.8866688,587.31381 C91.0491739,585.53881 143.720011,584.05131 192.932515,583.25131 C242.140853,582.45131 287.865856,582.109643 337.107527,582.17631 C386.349197,582.242976 439.115868,582.91381 502.440873,583.58881 C505.966321,596.382501 509.046559,607.560147 511.906412,617.938006 C583.407547,617.062562 637.032551,617.395896 690.615889,619.062563 C693.532381,619.145891 698.073681,618.937587 703.698216,618.479311 C693.198805,605.645895 683.907138,591.645894 675.740471,576.395893 C675.040471,575.095892 674.340471,573.769226 673.683137,572.437226 L673.198804,571.437559 C621.032133,569.395892 567.573795,569.062559 497.94879,570.312559 C491.993327,549.197735 487.744551,534.118759 483.24696,518.210561 L484.432955,518.230888 C423.07045,517.205888 371.945446,516.193388 324.241276,516.093388 C276.537105,515.989221 232.241268,516.505888 184.587098,517.718388 C136.928761,518.930888 85.9495901,521.185055 24.8370852,523.876722 C22.4704184,474.714218 21.2912516,450.130882 18.9245848,400.964212 C76.0704227,396.501711 123.76626,392.755878 168.416263,390.747544 C213.0621,388.735044 254.59127,387.876711 299.316274,388.043377 C344.041277,388.214211 391.982948,389.893378 449.537119,391.593378 L447.523,391.533 L447.280997,390.666345 C442.751285,374.546445 438.504921,359.418262 432.491285,338.104623 C493.532956,335.77129 544.366293,335.104623 591.657964,337.479623 C612.657619,338.521273 632.948963,339.93791 653.115302,341.812864 C657.282135,326.145873 662.573803,311.187538 669.11547,297.02087 C641.116301,293.687953 613.241299,291.312953 584.032963,289.771286 C536.057304,287.124353 484.510098,287.843706 423.034584,290.380903 C425.890442,300.749292 428.967895,311.917364 432.489618,324.697539 C349.102111,321.626705 286.614606,319.480872 224.185435,321.089205 C161.756263,322.697539 99.4770912,327.922539 16.8354179,335.993373 C14.4687511,286.830869 13.2895843,262.247534 10.9229175,213.080863 C87.6104236,202.347529 145.518762,195.397529 203.6271,193.260029 C261.626422,191.126538 319.700463,193.966004 397.160958,198.03706 C462.991259,194.946247 518.079573,194.168775 569.366295,197.312946 C621.657966,200.562946 670.116304,206.437946 721.824641,215.89628 C723.240977,216.146222 724.69896,216.437811 726.115316,216.72941 C739.657142,203.854196 754.657144,192.520858 771.157145,182.729194 C811.740482,158.604192 858.698819,146.520858 912.073823,146.520858 Z M460.217652,430.354067 C464.767374,446.864526 468.820828,461.574559 473.341287,477.979352 C473.349873,477.97923 473.35767,477.979218 473.365454,477.979218 C527.157125,476.562551 572.073796,476.145885 613.907132,477.645885 C624.5738,478.020885 635.032134,478.479218 645.365468,479.020885 C643.365509,463.896192 642.323844,448.146524 642.282137,431.771883 C630.449634,431.021298 618.532966,430.396298 606.324632,429.896297 C562.829301,428.146485 516.167983,428.604532 460.217652,430.354067 Z M171.495847,1.00334651 C223.050018,-1.93832039 274.712522,1.98667992 343.737527,7.60751371 C357.691695,58.2575178 364.670862,83.5825198 378.62503,134.232524 C303.895858,129.628357 247.929186,126.407523 192.054182,128.820023 C136.175011,131.232524 80.5250064,139.074191 6.91250047,151.178359 C4.54583362,102.015855 3.36666686,77.436686 1,28.2783487 C68.6583387,13.5075142 119.93751,3.94501341 171.495847,1.00334651 Z" id="Combined-Shape"></path>
            </g>
        </g>
    </g>
</svg>
